<?xml version="1.0" encoding="UTF-8" standalone="no"?>
<!DOCTYPE svg PUBLIC "-//W3C//DTD SVG 1.1//EN" "http://www.w3.org/Graphics/SVG/1.1/DTD/svg11.dtd">
<svg xmlns="http://www.w3.org/2000/svg" version="1.1" viewbox="0 0 238 223" width="238.0pt" height="223.0pt">
<path d="M 0.00 0.00 L 238.00 0.00 L 238.00 223.00 L 0.00 223.00 L 0.00 0.00 Z" fill="#ffffff" />
<path d="M 8.30 12.40 C 29.54 12.40 50.77 12.42 72.00 12.40 C 81.02 12.35 89.98 13.23 97.74 18.25 C 105.38 23.15 109.93 31.78 113.08 40.04 C 119.39 57.81 114.08 77.83 101.43 91.43 C 95.17 97.63 86.72 100.46 78.00 100.46 C 57.35 100.50 36.66 100.43 16.00 100.49 C 13.12 100.50 10.25 100.42 7.38 100.21 L 8.83 98.64 C 11.87 97.96 15.38 98.80 18.34 97.85 C 18.44 96.91 18.50 95.98 18.53 95.03 C 18.43 68.23 18.52 41.36 18.47 14.56 C 14.99 14.55 11.50 14.51 8.02 14.43 L 8.30 12.40 Z" fill="#bfbfbf" />
<path d="M 56.50 14.67 C 59.98 14.30 63.76 14.37 67.24 14.81 C 69.61 15.19 71.82 15.72 72.87 18.13 C 74.07 21.13 73.95 24.81 74.03 28.00 C 73.96 47.32 74.03 66.68 74.00 86.00 C 73.88 89.20 73.69 93.82 71.10 96.10 C 68.00 98.41 63.41 98.87 59.80 97.59 C 59.92 95.06 60.13 92.53 60.17 90.00 C 60.17 66.12 60.14 42.22 60.19 18.34 C 64.34 18.36 68.49 18.58 72.64 18.61 C 68.54 14.38 62.53 15.78 57.21 15.61 C 57.40 42.64 57.15 69.72 57.33 96.75 L 58.49 97.21 C 57.74 97.38 56.99 97.56 56.24 97.75 C 56.45 74.50 56.27 51.25 56.33 28.00 C 56.40 23.58 56.06 19.08 56.50 14.67 Z" fill="#ffffff" />
<path d="M 10.13 15.54 C 12.60 15.55 15.07 15.56 17.53 15.58 L 17.41 18.39 C 14.98 18.38 12.56 18.38 10.13 18.37 C 10.13 17.42 10.13 16.48 10.13 15.54 Z" fill="#7f7f7f" />
<path d="M 57.21 15.61 C 62.53 15.78 68.54 14.38 72.64 18.61 C 68.49 18.58 64.34 18.36 60.19 18.34 C 60.14 42.22 60.17 66.12 60.17 90.00 C 60.13 92.53 59.92 95.06 59.80 97.59 L 58.49 97.21 L 57.33 96.75 C 57.15 69.72 57.40 42.64 57.21 15.61 Z" fill="#7f7f7f" />
<path d="M 107.25 25.65 C 108.02 26.53 108.78 27.41 109.52 28.31 C 114.82 35.99 118.52 44.63 119.38 53.99 C 120.54 65.89 117.19 77.72 110.69 87.68 C 107.28 93.23 102.69 97.90 96.80 100.78 C 91.21 103.62 85.20 104.36 79.00 104.34 C 56.05 104.29 33.10 104.35 10.15 104.31 C 10.14 103.36 10.12 102.42 10.10 101.47 C 32.41 101.45 54.70 101.48 77.01 101.46 C 83.91 101.49 90.63 100.27 96.53 96.53 C 103.68 92.07 108.13 85.25 111.75 77.83 C 117.13 66.51 118.35 53.34 114.58 41.33 C 112.93 35.66 109.94 30.84 107.25 25.65 Z" fill="#7f7f7f" />
<path d="M 64.18 115.81 C 76.12 115.63 88.06 115.78 100.00 115.73 C 105.91 115.79 111.89 115.54 117.78 115.97 C 115.84 118.51 113.35 117.90 110.51 118.37 C 117.64 137.68 124.26 157.17 131.32 176.51 C 134.76 170.58 137.34 164.13 140.32 157.95 C 136.88 147.34 133.23 136.80 129.77 126.19 C 128.93 123.64 128.20 120.93 126.96 118.54 C 124.35 117.67 121.92 118.15 120.00 115.99 C 125.62 115.53 131.35 115.79 137.00 115.73 C 149.54 115.89 162.15 115.40 174.67 116.00 C 172.55 118.54 169.46 117.89 166.42 118.32 C 172.89 136.98 178.91 155.80 185.33 174.48 C 190.51 163.70 194.73 152.44 199.47 141.45 C 202.21 135.19 203.32 127.53 199.36 121.53 C 197.11 118.88 192.47 118.24 189.42 116.78 C 193.96 115.19 198.31 115.75 203.00 115.73 C 209.24 115.79 215.42 115.57 221.66 115.93 C 219.04 119.94 214.86 122.17 212.06 126.03 C 208.81 130.54 205.42 135.49 204.42 141.03 L 203.91 142.05 L 203.55 142.59 C 200.97 146.13 199.81 150.00 198.06 153.95 C 190.92 170.52 183.89 187.14 176.70 203.68 C 171.47 204.07 166.24 204.23 161.00 204.26 C 159.53 204.15 157.62 204.44 156.32 203.68 C 154.59 201.21 153.91 197.89 152.92 195.06 C 149.23 183.86 145.59 172.64 141.69 161.51 C 134.76 175.34 128.48 189.53 121.97 203.57 C 115.16 203.87 108.36 203.63 101.55 203.80 C 99.28 198.15 97.40 192.38 95.36 186.65 C 87.34 163.84 79.26 141.06 71.28 118.24 C 68.93 118.02 66.57 117.81 64.22 117.60 L 64.18 115.81 Z" fill="#bfbfbf" />
<path d="M 119.25 117.22 C 119.69 117.96 120.10 118.70 120.49 119.45 C 120.70 120.15 120.90 120.85 121.10 121.56 C 118.98 121.60 116.85 121.64 114.73 121.67 C 120.15 137.32 125.76 152.91 131.34 168.50 C 132.09 170.54 132.10 172.57 131.97 174.71 C 130.04 170.53 128.68 166.20 127.13 161.88 C 122.05 147.59 116.98 133.30 111.89 119.01 C 113.70 118.90 115.53 118.81 117.33 118.60 C 117.97 118.14 118.61 117.68 119.25 117.22 Z" fill="#7f7f7f" />
<path d="M 177.62 117.25 C 177.64 118.70 177.65 120.16 177.67 121.61 C 175.32 121.62 172.97 121.64 170.62 121.66 C 174.57 133.89 178.73 146.05 182.79 158.24 C 184.32 163.10 186.52 167.09 186.04 172.38 C 183.83 167.74 182.53 162.96 180.87 158.12 C 176.51 145.09 172.16 132.04 167.78 119.01 C 171.32 118.96 174.37 118.72 177.62 117.25 Z" fill="#7f7f7f" />
<path d="M 222.81 117.77 C 223.42 117.55 224.04 117.33 224.67 117.11 C 224.67 118.52 224.67 119.92 224.67 121.33 C 214.14 127.92 209.98 138.33 205.23 149.21 C 196.89 168.64 188.55 188.07 180.23 207.52 C 172.74 207.56 165.23 207.64 157.74 207.46 C 157.54 206.60 157.34 205.74 157.14 204.88 C 163.90 204.84 170.66 204.80 177.42 204.72 C 184.17 188.75 191.08 172.84 197.89 156.90 C 199.96 151.95 202.30 147.18 203.91 142.05 L 204.42 141.03 C 207.14 136.10 209.30 131.25 212.74 126.75 C 215.46 123.11 218.98 120.18 222.81 117.77 Z" fill="#7f7f7f" />
<path d="M 66.11 118.64 C 67.55 118.81 68.99 118.98 70.42 119.22 C 70.80 120.01 71.17 120.80 71.53 121.59 C 69.75 121.61 67.98 121.62 66.20 121.64 C 66.17 120.64 66.14 119.64 66.11 118.64 Z" fill="#7f7f7f" />
<path d="M 122.92 119.19 C 123.89 118.95 124.87 118.76 125.87 118.63 C 126.35 119.62 126.81 120.63 127.27 121.64 C 125.54 121.62 123.81 121.59 122.08 121.55 C 122.35 120.75 122.63 119.97 122.92 119.19 Z" fill="#7f7f7f" />
<path d="M 192.68 119.09 C 195.33 119.69 197.44 121.16 199.59 122.75 C 197.03 122.38 194.49 121.92 191.95 121.43 C 192.18 120.65 192.42 119.87 192.68 119.09 Z" fill="#7f7f7f" />
<path d="M 141.66 163.76 C 142.38 166.67 143.52 168.97 141.94 171.85 C 136.34 183.75 130.85 195.62 125.28 207.54 C 117.95 207.57 110.62 207.55 103.29 207.55 C 103.21 206.62 103.13 205.69 103.05 204.76 C 109.53 204.74 116.01 204.76 122.49 204.74 C 128.24 192.14 134.18 179.62 140.03 167.07 C 140.57 165.96 141.11 164.86 141.66 163.76 Z" fill="#7f7f7f" />
</svg>